<svg width="295" height="26" viewBox="0 0 295 26" fill="none" xmlns="http://www.w3.org/2000/svg">
<path d="M35.9522 1.71855L33.8678 7.48808H16.5592L15.5169 10.3542H28.6938C30.7038 10.3542 32.0811 12.327 31.411 14.2254L28.9543 21C28.0982 23.3078 26.0137 24.7595 23.5198 24.7595H1.63281L3.71729 18.9899H21.0259L22.0681 16.1238H8.89126C6.88123 16.1238 5.50398 14.151 6.17399 12.2526L8.6307 5.51528C9.48682 3.20746 11.5713 1.71855 14.0652 1.71855H35.9522Z" fill="white"/>
<path d="M31.84 24.7595H40.4757L43.6024 16.1238H56.8537C59.3104 16.1238 61.3949 14.6349 62.251 12.327L64.7077 5.58972C65.4149 3.69136 64.0005 1.71855 62.0277 1.71855H40.2151L31.84 24.7595ZM45.0913 11.1359L46.4313 7.48808H55.737L54.4342 11.1359H45.0913Z" fill="white"/>
<path d="M60.8112 24.7595H69.4469L71.5686 18.9899H80.2043L78.0826 24.7595H86.7555L95.1306 1.71855H73.2436C70.7497 1.71855 68.6652 3.20746 67.8091 5.51528L60.8112 24.7595ZM75.7376 7.48808H84.3733L82.2888 13.2576H73.6531L75.7376 7.48808Z" fill="white"/>
<path d="M121.988 1.71855L119.903 7.48808H105.089L100.882 18.9899H115.697L113.613 24.7595H94.2568C92.284 24.7595 90.8695 22.7494 91.5767 20.8883L97.1602 5.51528C98.0163 3.20746 100.101 1.71855 102.557 1.71855H121.988Z" fill="white"/>
<path d="M151.837 1.71855L149.753 7.48808H132.444L131.402 10.4659H145.807L143.909 15.2676H129.504L128.275 18.9899H145.547L143.462 24.7595H117.518L125.893 1.71855H151.837Z" fill="white"/>
<path d="M166.858 1.71855H175.493L173.632 15.5282C174.563 13.5926 176.498 9.94479 176.722 9.49811L181.226 1.71855H186.995L185.469 15.491L195.519 1.71855H204.081L187.256 24.7595H178.62L179.96 13.1832L172.851 24.7595H164.215L166.858 1.71855Z" fill="white"/>
<path d="M198.506 24.7595H207.142L209.264 18.9899H217.9L215.778 24.7595H224.451L232.826 1.71855H210.939C208.445 1.71855 206.36 3.20746 205.504 5.51528L198.506 24.7595ZM213.433 7.48808H222.068L219.984 13.2576H211.348L213.433 7.48808Z" fill="white"/>
<path d="M228.714 24.7595H237.349L240.476 16.1238H244.459L248.851 24.7595H257.487L253.095 16.1238H253.727C256.184 16.1238 258.269 14.6349 259.125 12.327L261.581 5.58972C262.289 3.69136 260.874 1.71855 258.901 1.71855H237.089L228.714 24.7595ZM243.417 7.48808H252.685L251.345 11.1359H242.077L243.417 7.48808Z" fill="white"/>
<path d="M292.731 1.71855L290.647 7.48808H273.338L272.296 10.3542H285.473C287.483 10.3542 288.86 12.327 288.19 14.2254L285.733 21C284.877 23.3078 282.793 24.7595 280.299 24.7595H258.412L260.496 18.9899H277.805L278.847 16.1238H265.67C263.66 16.1238 262.283 14.151 262.953 12.2526L265.41 5.51528C266.266 3.20746 268.35 1.71855 270.844 1.71855H292.731Z" fill="white"/>
<path fill-rule="evenodd" clip-rule="evenodd" d="M37.3524 0.738998L34.5602 8.46762H17.25L16.9202 9.37468H28.6986C31.3948 9.37468 33.231 12.0256 32.3395 14.5514L32.3367 14.5594L29.8775 21.3407C28.878 24.035 26.4254 25.739 23.5246 25.739H0.242188L3.03447 18.0104H20.3446L20.6744 17.1033H8.89605C6.19979 17.1033 4.3636 14.4524 5.25508 11.9266L5.25846 11.917L7.71708 5.17457C8.71293 2.49013 11.1587 0.738998 14.07 0.738998H37.3524ZM22.0729 16.1238L21.0307 18.9899H3.72208L1.63761 24.7595H23.5246C26.0185 24.7595 28.103 23.3078 28.9591 21L31.4158 14.2254C32.0858 12.327 30.7086 10.3542 28.6986 10.3542H15.5217L16.5639 7.48808H33.8725L35.957 1.71855H14.07C11.5761 1.71855 9.49161 3.20746 8.63549 5.51527L6.17879 12.2526C5.50878 14.151 6.88602 16.1238 8.89605 16.1238H22.0729ZM30.4465 25.739L39.5337 0.738998H62.0324C64.6778 0.738998 66.5777 3.38227 65.6316 5.92838L65.6304 5.93168L63.1742 12.6677C62.1796 15.3487 59.7363 17.1033 56.8585 17.1033H44.2943L41.1676 25.739H30.4465ZM43.6072 16.1238H56.8585C59.3152 16.1238 61.3997 14.6349 62.2558 12.327L64.7125 5.58971C65.4197 3.69135 64.0053 1.71855 62.0324 1.71855H40.2199L31.8448 24.7595H40.4805L43.6072 16.1238ZM45.0961 11.1359H54.439L55.7418 7.48808H46.4361L45.0961 11.1359ZM46.4995 10.1564H53.7487L54.3518 8.46762H47.1198L46.4995 10.1564ZM59.4175 25.739L66.8955 5.17457C67.8914 2.49013 70.3371 0.738998 73.2484 0.738998H96.5337L87.4465 25.739H76.6835L78.8052 19.9695H72.2569L70.1352 25.739H59.4175ZM71.5734 18.9899H80.2091L78.0874 24.7595H86.7603L95.1354 1.71855H73.2484C70.7545 1.71855 68.67 3.20746 67.8139 5.51527L60.816 24.7595H69.4517L71.5734 18.9899ZM76.43 8.46762L75.0533 12.2781H81.606L82.9826 8.46762H76.43ZM75.7424 7.48808L73.6579 13.2576H82.2936L84.378 7.48808H75.7424ZM123.388 0.738998L120.596 8.46762H105.778L102.288 18.0104H117.097L114.305 25.739H94.2616C91.6155 25.739 89.7151 23.0569 90.6631 20.5475L90.6659 20.5403L96.2465 5.17457C97.2411 2.49365 99.6844 0.738998 102.562 0.738998H123.388ZM91.5815 20.8883C90.8743 22.7494 92.2888 24.7595 94.2616 24.7595H113.617L115.702 18.9899H100.887L105.093 7.48808H119.908L121.993 1.71855H102.562C100.106 1.71855 98.0211 3.20746 97.1649 5.51527L91.5815 20.8883ZM153.237 0.738998L150.445 8.46762H133.144L132.787 9.48635H147.253L144.58 16.2472H130.217L129.635 18.0104H146.947L144.155 25.739H116.124L125.212 0.738998H153.237ZM128.28 18.9899L129.508 15.2676H143.914L145.812 10.4659H131.407L132.449 7.48808H149.758L151.842 1.71855H125.898L117.523 24.7595H143.467L145.551 18.9899H128.28ZM165.989 0.738998H176.619L175.374 9.97614C175.391 9.94411 175.407 9.91271 175.423 9.88196C175.646 9.45511 175.803 9.15513 175.85 9.06004L175.864 9.03325L180.666 0.738998H188.094L186.853 11.9393L195.026 0.738998H206.014L187.758 25.739H177.525L178.483 17.4682L173.403 25.739H163.121L165.989 0.738998ZM179.965 13.1832L178.625 24.7595H187.261L204.085 1.71855H195.524L185.474 15.491L187 1.71855H181.231L176.727 9.49811C176.668 9.61481 176.493 9.95003 176.249 10.4161C175.916 11.0547 175.453 11.9389 174.987 12.8435C174.492 13.8058 173.991 14.7911 173.637 15.5282L175.498 1.71855H166.863L164.22 24.7595H172.855L179.965 13.1832ZM197.113 25.739L204.589 5.18052L204.591 5.17457C205.587 2.49013 208.032 0.738998 210.944 0.738998H234.229L225.142 25.739H214.379L216.5 19.9695H209.952L207.83 25.739H197.113ZM209.269 18.9899H217.904L215.783 24.7595H224.456L232.831 1.71855H210.944C208.45 1.71855 206.365 3.20746 205.509 5.51527L198.511 24.7595H207.147L209.269 18.9899ZM214.125 8.46762L212.749 12.2781H219.301L220.678 8.46762H214.125ZM213.438 7.48808L211.353 13.2576H219.989L222.073 7.48808H213.438ZM227.32 25.739L236.407 0.738998H258.906C261.551 0.738998 263.451 3.38189 262.505 5.92784L262.504 5.93168L260.05 12.6626L260.048 12.6677C259.163 15.0538 257.13 16.7061 254.665 17.0407L257.88 23.3623L259.814 18.0104H277.124L277.453 17.1033H265.675C262.979 17.1033 261.143 14.4524 262.034 11.9266L262.037 11.917L264.494 5.1797L264.496 5.17457C265.492 2.49013 267.938 0.738998 270.849 0.738998H294.131L291.339 8.46762H274.029L273.699 9.37468H285.478C288.174 9.37468 290.01 12.0256 289.119 14.5514L289.116 14.5594L286.657 21.3407C285.657 24.035 283.204 25.739 280.304 25.739H248.255L243.863 17.1033H241.168L238.041 25.739H227.32ZM240.481 16.1238H244.464L248.856 24.7595H257.492L253.099 16.1238H253.732C253.886 16.1238 254.039 16.1179 254.189 16.1064C256.445 15.9339 258.327 14.4902 259.129 12.327L261.586 5.58971C262.293 3.69135 260.879 1.71855 258.906 1.71855H237.094L228.718 24.7595H237.354L240.481 16.1238ZM280.304 24.7595C282.798 24.7595 284.882 23.3078 285.738 21L288.195 14.2254C288.865 12.327 287.488 10.3542 285.478 10.3542H272.301L273.343 7.48808H290.652L292.736 1.71855H270.849C268.355 1.71855 266.271 3.20746 265.415 5.51527L262.958 12.2526C262.288 14.151 263.665 16.1238 265.675 16.1238H278.852L277.81 18.9899H260.501L258.417 24.7595H280.304ZM244.105 8.46762L243.485 10.1564H250.666L251.286 8.46762H244.105ZM243.421 7.48808L242.081 11.1359H251.35L252.69 7.48808H243.421Z" fill="black"/>
</svg>
