<svg width="201" height="26" viewBox="0 0 201 26" fill="none" xmlns="http://www.w3.org/2000/svg">
<path d="M24.5109 1.71854L23.0943 7.48808H11.3314L10.6231 10.4659H20.4128L19.1227 15.2676H9.33297L8.49819 18.9899H20.2358L18.8192 24.7594H1.1875L6.87921 1.71854H24.5109Z" fill="white"/>
<path d="M21.7162 24.7594H27.585L29.0269 18.9899H34.8957L33.4538 24.7594H39.3479L45.0396 1.71854H30.1652C28.4704 1.71854 27.0538 3.20745 26.4719 5.51527L21.7162 24.7594ZM31.8601 7.48808H37.7289L36.3123 13.2576H30.4435L31.8601 7.48808Z" fill="white"/>
<path d="M42.2449 24.7594H48.1137L50.2386 16.1238H52.9453L55.9303 24.7594H61.7991L58.8141 16.1238H59.2441C60.9137 16.1238 62.3303 14.6348 62.9121 12.327L64.5817 5.58971C65.0623 3.69135 64.1011 1.71854 62.7604 1.71854H47.9366L42.2449 24.7594ZM52.237 7.48808H58.5358L57.6252 11.1359H51.3263L52.237 7.48808Z" fill="white"/>
<path d="M77.2009 7.48808L82.0831 7.5253L83.4997 1.75577C77.9598 1.71854 72.4199 1.71854 66.8799 1.71854L65.4633 7.48808H71.3321L67.057 24.7594H72.9258L77.2009 7.48808Z" fill="white"/>
<path d="M103.538 1.71854H97.6689L95.5946 9.982H89.7258L91.8001 1.71854H85.9061L80.2143 24.7594H86.0831L88.2839 15.7515H94.1527L91.9519 24.7594H97.846L103.538 1.71854Z" fill="white"/>
<path d="M113.746 1.71854H119.614L118.35 15.5282C118.982 13.5926 120.297 9.94478 120.449 9.4981L123.51 1.71854H127.431L126.394 15.491L133.224 1.71854H139.042L127.608 24.7594H121.739L122.65 13.1832L117.818 24.7594H111.95L113.746 1.71854Z" fill="white"/>
<path d="M135.254 24.7594H141.123L142.565 18.9899H148.433L146.992 24.7594H152.886L158.577 1.71854H143.703C142.008 1.71854 140.592 3.20745 140.01 5.51527L135.254 24.7594ZM145.398 7.48808H151.267L149.85 13.2576H143.981L145.398 7.48808Z" fill="white"/>
<path d="M155.783 24.7594H161.651L163.776 16.1238H166.483L169.468 24.7594H175.337L172.352 16.1238H172.782C174.451 16.1238 175.868 14.6348 176.45 12.327L178.119 5.58971C178.6 3.69135 177.639 1.71854 176.298 1.71854H161.474L155.783 24.7594ZM165.775 7.48808H172.074L171.163 11.1359H164.864L165.775 7.48808Z" fill="white"/>
<path d="M199.289 1.71854L197.872 7.48808H186.109L185.401 10.3542H194.356C195.722 10.3542 196.658 12.327 196.203 14.2254L194.533 20.9999C193.951 23.3078 192.535 24.7594 190.84 24.7594H175.966L177.382 18.9899H189.145L189.853 16.1238H180.898C179.532 16.1238 178.596 14.151 179.052 12.2526L180.721 5.51527C181.303 3.20745 182.72 1.71854 184.415 1.71854H199.289Z" fill="white"/>
<path fill-rule="evenodd" clip-rule="evenodd" d="M25.4642 0.738998L23.5665 8.46763H11.8087L11.5664 9.48635H21.3968L19.5803 16.2472H9.81927L9.42385 18.0104H21.1891L19.2914 25.739H0.242188L6.41785 0.738998H25.4642ZM8.50316 18.9899L9.33794 15.2676H19.1277L20.4178 10.4659H10.6281L11.3364 7.48808H23.0992L24.5158 1.71855H6.88418L1.19247 24.7595H18.8241L20.2407 18.9899H8.50316ZM20.7708 25.739L25.8528 5.17457C26.5295 2.49013 28.1917 0.738998 30.1702 0.738998H45.9948L39.8192 25.739H32.5047L33.9466 19.9695H29.4963L28.0544 25.739H20.7708ZM29.0319 18.9899H34.9006L33.4587 24.7595H39.3528L45.0445 1.71855H30.1702C28.4753 1.71855 27.0587 3.20746 26.4769 5.51527L21.7212 24.7595H27.59L29.0319 18.9899ZM32.3324 8.46763L31.3968 12.2781H35.8499L36.7855 8.46763H32.3324ZM31.8651 7.48808L30.4485 13.2576H36.3172L37.7339 7.48808H31.8651ZM41.2996 25.739L47.4752 0.738998H62.7653C64.3571 0.738998 65.5516 2.81108 65.3583 5.05322L66.4176 0.738998H66.8849C72.4243 0.738998 77.9663 0.738998 83.5077 0.776231L84.4515 0.782572L82.5545 8.50842L77.671 8.47118L73.3968 25.739H66.111L70.3861 8.46763H64.5821L63.5413 12.6677C62.9397 15.0538 61.5583 16.7061 59.8829 17.0407L62.8895 25.739H55.527L52.542 17.1033H50.7105L48.5856 25.739H41.2996ZM50.2436 16.1238H52.9503L55.9353 24.7595H61.8041L58.8191 16.1238H59.2491C59.3538 16.1238 59.4574 16.1179 59.5599 16.1064C61.093 15.9339 62.3718 14.4902 62.9171 12.327L64.5867 5.58971C65.0673 3.69135 64.106 1.71855 62.7653 1.71855H47.9416L42.2499 24.7595H48.1187L50.2436 16.1238ZM71.3371 7.48808L67.062 24.7595H72.9308L77.2059 7.48808L82.0881 7.5253L83.5047 1.75577C83.2691 1.75418 83.0336 1.75267 82.798 1.75122C77.4936 1.71855 72.1893 1.71855 66.8849 1.71855L65.4683 7.48808H71.3371ZM52.7066 8.46763L52.285 10.1564H57.1655L57.5871 8.46763H52.7066ZM52.242 7.48808L51.3313 11.1359H57.6301L58.5408 7.48808H52.242ZM104.493 0.738998L98.3173 25.739H91.0102L93.211 16.7311H88.757L86.5562 25.739H79.269L85.4447 0.738998H92.7607L90.6863 9.00246H95.1358L97.2101 0.738998H104.493ZM95.5996 9.982H89.7308L91.8051 1.71855H85.911L80.2193 24.7595H86.0881L88.2889 15.7515H94.1577L91.9569 24.7595H97.851L103.543 1.71855H97.6739L95.5996 9.982ZM113.157 0.738998H120.381L119.535 9.97614C119.546 9.94411 119.557 9.91271 119.568 9.88196C119.72 9.45511 119.826 9.15513 119.859 9.06004L119.868 9.03325L123.131 0.738998H128.18L127.336 11.9393L132.891 0.738998H140.357L127.951 25.739H120.997L121.648 17.4682L118.196 25.739H111.208L113.157 0.738998ZM122.655 13.1832L121.744 24.7595H127.613L139.047 1.71855H133.229L126.399 15.491L127.436 1.71855H123.515L120.454 9.49811C120.415 9.61481 120.295 9.95004 120.13 10.4162C119.903 11.0547 119.589 11.9389 119.272 12.8435C118.935 13.8058 118.595 14.7911 118.355 15.5282L119.619 1.71855H113.751L111.955 24.7595H117.823L122.655 13.1832ZM134.309 25.739L139.389 5.18052L139.391 5.17457C140.067 2.49013 141.729 0.738998 143.708 0.738998H159.533L153.357 25.739H146.042L147.484 19.9695H143.034L141.592 25.739H134.309ZM142.57 18.9899H148.438L146.997 24.7595H152.891L158.582 1.71855H143.708C142.013 1.71855 140.597 3.20746 140.015 5.51527L135.259 24.7595H141.128L142.57 18.9899ZM145.87 8.46763L144.935 12.2781H149.388L150.323 8.46763H145.87ZM145.403 7.48808L143.986 13.2576H149.855L151.272 7.48808H145.403ZM154.837 25.739L161.013 0.738998H176.303C178.101 0.738998 179.392 3.38189 178.749 5.92784C178.749 5.92912 178.749 5.9304 178.748 5.93168L177.08 12.6626L177.079 12.6677C176.478 15.0538 175.096 16.7061 173.421 17.0407L175.606 23.3623L176.92 18.0104H188.684L188.908 17.1033H180.903C179.071 17.1033 177.823 14.4524 178.429 11.9266L178.431 11.917L180.101 5.1797L180.102 5.17457C180.779 2.49013 182.441 0.738998 184.42 0.738998H200.242L198.345 8.46763H186.581L186.357 9.37468H194.361C196.193 9.37468 197.441 12.0256 196.835 14.5514L196.834 14.5594L195.162 21.3407C194.483 24.035 192.816 25.739 190.845 25.739H169.065L166.08 17.1033H164.248L162.123 25.739H154.837ZM163.781 16.1238H166.488L169.473 24.7595H175.342L172.357 16.1238H172.787C172.892 16.1238 172.995 16.1179 173.098 16.1064C174.631 15.9339 175.91 14.4902 176.455 12.327L178.124 5.58971C178.605 3.69135 177.644 1.71855 176.303 1.71855H161.479L155.788 24.7595H161.656L163.781 16.1238ZM190.845 24.7595C192.54 24.7595 193.956 23.3078 194.538 21L196.208 14.2254C196.663 12.327 195.727 10.3542 194.361 10.3542H185.406L186.114 7.48808H197.877L199.294 1.71855H184.42C182.725 1.71855 181.308 3.20746 180.726 5.51527L179.057 12.2526C178.601 14.151 179.537 16.1238 180.903 16.1238H189.858L189.15 18.9899H177.387L175.971 24.7595H190.845ZM166.244 8.46763L165.823 10.1564H170.703L171.125 8.46763H166.244ZM165.78 7.48808L164.869 11.1359H171.168L172.079 7.48808H165.78Z" fill="black"/>
</svg>
