<svg width="200" height="25" viewBox="0 0 200 25" fill="none" xmlns="http://www.w3.org/2000/svg">
<path d="M0.6875 24.0205H4.92789L6.4632 15.3848H12.97C14.1763 15.3848 15.1999 13.8959 15.6202 11.588L16.8266 4.85072C17.1738 2.95236 16.4793 0.979553 15.5106 0.979553H4.79995L0.6875 24.0205ZM7.1943 10.3969L7.85229 6.74909H12.4217L11.782 10.3969H7.1943Z" fill="white"/>
<path d="M19.0257 1.01678H23.2661L20.1772 18.2881H26.9033L25.8798 24.0205H14.9133L19.0257 1.01678Z" fill="white"/>
<path d="M27.0864 24.0205H31.3268L32.3686 18.2509H36.609L35.5672 24.0205H39.8259L43.9383 0.979553H33.1911C31.9665 0.979553 30.943 2.46846 30.5226 4.77628L27.0864 24.0205ZM34.4157 6.74909H38.6561L37.6325 12.5186H33.3922L34.4157 6.74909Z" fill="white"/>
<path d="M41.9191 24.0205H46.1594L48.2248 12.5186L50.3998 24.0205H54.6585L58.7709 0.979553H54.5306L52.4652 12.5186L50.2902 0.979553H46.0315L41.9191 24.0205Z" fill="white"/>
<path d="M73.6036 0.979553L72.5801 6.74909H64.081L63.5692 9.72691H70.6426L69.7105 14.5286H62.6371L62.0339 18.2509H70.5147L69.4911 24.0205H56.7517L60.8642 0.979553H73.6036Z" fill="white"/>
<path d="M88.4362 0.979553L87.4127 6.74909H78.9136L78.4019 9.61524H84.8721C85.8591 9.61524 86.5354 11.588 86.2064 13.4864L85.0001 20.261C84.5797 22.5688 83.5561 24.0205 82.3315 24.0205H71.5844L72.6079 18.2509H81.107L81.6187 15.3848H75.1485C74.1615 15.3848 73.4852 13.412 73.8142 11.5136L75.0205 4.77628C75.4409 2.46846 76.4645 0.979553 77.6891 0.979553H88.4362Z" fill="white"/>
<path d="M104.862 7.04295H97.2528C96.364 7.04295 95.6098 8.14004 95.3 9.84054L92.7681 24.0205H100.377C101.266 24.0205 102.02 22.9234 102.33 21.2229L104.862 7.04295ZM96.6468 19.7692L98.1686 11.2942H100.983L99.4615 19.7692H96.6468Z" fill="white"/>
<path d="M115.799 7.04295H106.412L103.382 24.0205H106.506L107.651 17.6573H112.863L113.509 13.9821H108.297L108.782 11.2942H115.045L115.799 7.04295Z" fill="white"/>
<path d="M136.985 0.979553L135.961 6.74909H127.462L125.415 18.2509H129.656L130.679 12.5186H134.92L133.549 20.2237C133.128 22.5688 132.105 24.0205 130.88 24.0205H120.133L123.569 4.77628C123.99 2.46846 125.013 0.979553 126.238 0.979553H136.985Z" fill="white"/>
<path d="M139.078 1.01678H143.319L140.23 18.2881H146.956L145.932 24.0205H134.966L139.078 1.01678Z" fill="white"/>
<path d="M163.552 0.979553H153.225C152.019 0.979553 150.995 2.46846 150.575 4.77628L147.139 24.0205H157.466C158.672 24.0205 159.696 22.5315 160.116 20.2237L163.552 0.979553ZM152.403 18.2509L154.468 6.74909H158.288L156.223 18.2509H152.403Z" fill="white"/>
<path d="M161.543 24.0205H165.784L167.319 15.3848H169.275L171.431 24.0205H175.672L173.515 15.3848H173.826C175.032 15.3848 176.056 13.8959 176.476 11.588L177.682 4.85072C178.029 2.95236 177.335 0.979553 176.366 0.979553H165.656L161.543 24.0205ZM168.763 6.74909H173.314L172.656 10.3969H168.105L168.763 6.74909Z" fill="white"/>
<path d="M176.126 24.0205H180.366L184.479 1.01678H180.238L176.126 24.0205Z" fill="white"/>
<path d="M182.462 24.0205H186.703L187.745 18.2509H191.985L190.943 24.0205H195.202L199.314 0.979553H188.567C187.342 0.979553 186.319 2.46846 185.899 4.77628L182.462 24.0205ZM189.792 6.74909H194.032L193.009 12.5186H188.768L189.792 6.74909Z" fill="white"/>
<path fill-rule="evenodd" clip-rule="evenodd" d="M0 25L4.46211 0H15.5097C16.8087 0 17.7416 2.64327 17.277 5.18938C17.2768 5.19048 17.2766 5.19158 17.2764 5.19268L16.0703 11.9287C15.582 14.6097 14.3822 16.3643 12.9691 16.3643H6.79971L5.26439 25H0ZM6.46231 15.3848H12.9691C14.1754 15.3848 15.199 13.8959 15.6194 11.588L16.8257 4.85072C17.173 2.95235 16.4784 0.979547 15.5097 0.979547H4.79906L0.686611 24.0205H4.927L6.46231 15.3848ZM7.19341 10.3969H11.7811L12.4208 6.74908H7.85141L7.19341 10.3969ZM7.88252 9.41737H11.4421L11.7383 7.72863H8.18713L7.88252 9.41737ZM18.6881 0.037222H23.9523L20.8634 17.3086H27.5892L26.2158 25H14.2254L18.6881 0.037222ZM20.1763 18.2881L23.2652 1.01677H19.0248L14.9124 24.0205H25.8789L26.9025 18.2881H20.1763ZM26.3988 25L30.0707 4.43557C30.5597 1.75113 31.7607 0 33.1902 0H44.624L40.1619 25H34.8769L35.9188 19.2305H32.7033L31.6615 25H26.3988ZM32.3677 18.2509H36.6081L35.5663 24.0205H39.825L43.9374 0.979547H33.1902C31.9656 0.979547 30.9421 2.46846 30.5217 4.77627L27.0855 24.0205H31.3259L32.3677 18.2509ZM34.7524 7.72863L34.0765 11.5391H37.294L37.97 7.72863H34.7524ZM34.4148 6.74908L33.3913 12.5186H37.6317L38.6552 6.74908H34.4148ZM41.2316 25L45.6937 0H50.6198L52.4527 9.72348L54.193 0H59.4567L54.9946 25H50.0688L48.2356 15.3058L46.4948 25H41.2316ZM48.2239 12.5186L50.3989 24.0205H54.6576L58.7701 0.979547H54.5297L52.4643 12.5186L50.2893 0.979547H46.0306L41.9182 24.0205H46.1586L48.2239 12.5186ZM74.2879 0L72.9168 7.72863H64.4214L64.2463 8.74735H71.3491L70.0366 15.5082H62.984L62.6982 17.2714H71.199L69.8279 25H56.0642L60.5263 0H74.2879ZM62.033 18.2509L62.6362 14.5286H69.7096L70.6417 9.7269H63.5683L64.0801 6.74908H72.5792L73.6027 0.979547H60.8633L56.7508 24.0205H69.4903L70.5138 18.2509H62.033ZM89.1205 0L87.7495 7.72863H79.2497L79.0877 8.63569H84.8712C86.1952 8.63569 87.0968 11.2866 86.6591 13.8124L86.6577 13.8204L85.4501 20.6017C84.9593 23.296 83.755 25 82.3307 25H70.8983L72.2694 17.2714H80.7692L80.9311 16.3643H75.1476C73.8236 16.3643 72.922 13.7134 73.3598 11.1876L73.3614 11.178L74.5687 4.43557C75.0577 1.75113 76.2586 0 77.6882 0H89.1205ZM81.6178 15.3848L81.1061 18.2509H72.607L71.5835 24.0205H82.3307C83.5553 24.0205 84.5788 22.5688 84.9992 20.261L86.2055 13.4864C86.5345 11.588 85.8582 9.61523 84.8712 9.61523H78.401L78.9128 6.74908H87.4118L88.4354 0.979547H77.6882C76.4636 0.979547 75.44 2.46846 75.0196 4.77627L73.8133 11.5136C73.4843 13.412 74.1606 15.3848 75.1476 15.3848H81.6178ZM105.548 6.0634L102.78 21.5636C102.402 23.6372 101.472 25 100.376 25H92.0805L94.8471 9.50578L94.8482 9.49983C95.2259 7.42623 96.1563 6.0634 97.2519 6.0634H105.548ZM95.2991 9.84053C95.6089 8.14003 96.3631 7.04294 97.2519 7.04294H104.861L102.329 21.2229C102.02 22.9234 101.265 24.0205 100.376 24.0205H92.7672L95.2991 9.84053ZM96.6459 19.7692H99.4606L100.982 11.2942H98.1678L96.6459 19.7692ZM97.3339 18.7897H99.1244L100.294 12.2737H98.504L97.3339 18.7897ZM116.483 6.0634L115.382 12.2737H109.117L108.986 13.0025H114.192L113.201 18.6369H107.986L106.841 25H102.694L106.074 6.0634H116.483ZM107.65 17.6573H112.862L113.509 13.9821H108.297L108.781 11.2942H115.044L115.798 7.04294H106.411L103.381 24.0205H106.505L107.65 17.6573ZM137.669 0L136.298 7.72863H127.799L126.1 17.2714H129.318L130.341 11.5391H135.605L134 20.5574L134 20.5597C133.51 23.2927 132.305 25 130.879 25H119.446L123.116 4.44152L123.117 4.43557C123.606 1.75113 124.807 0 126.237 0H137.669ZM129.655 18.2509H125.414L127.462 6.74908H135.961L136.984 0.979547H126.237C125.012 0.979547 123.989 2.46846 123.568 4.77627L120.132 24.0205H130.879C132.104 24.0205 133.128 22.5688 133.548 20.2237L134.919 12.5186H130.678L129.655 18.2509ZM138.741 0.037222H144.005L140.916 17.3086H147.642L146.268 25H134.278L138.741 0.037222ZM140.229 18.2881L143.318 1.01677H139.077L134.965 24.0205H145.931L146.955 18.2881H140.229ZM164.238 0L160.567 20.5585L160.566 20.5644C160.078 23.2453 158.878 25 157.465 25H146.451L150.122 4.44152L150.123 4.43557C150.612 1.75465 151.811 0 153.224 0H164.238ZM150.574 4.77627C150.995 2.46846 152.018 0.979547 153.224 0.979547H163.551L160.115 20.2237C159.695 22.5315 158.671 24.0205 157.465 24.0205H147.138L150.574 4.77627ZM152.402 18.2509H156.222L158.287 6.74908H154.467L152.402 18.2509ZM153.09 17.2714H155.886L157.599 7.72863H154.804L153.09 17.2714ZM160.856 25L165.318 0H176.365C177.664 0 178.597 2.6429 178.133 5.18884C178.133 5.19012 178.132 5.1914 178.132 5.19268L176.927 11.9236L176.926 11.9287C176.491 14.3148 175.493 15.9671 174.283 16.3017L175.862 22.6267L179.901 0.037222H185.165L180.702 25H171.135L168.979 16.3643H167.655L166.12 25H160.856ZM167.318 15.3848H169.274L171.43 24.0205H175.671L173.514 15.3848H173.825C173.9 15.3848 173.975 15.3789 174.049 15.3674C175.157 15.1949 176.081 13.7512 176.475 11.588L177.681 4.85072C178.029 2.95235 177.334 0.979547 176.365 0.979547H165.655L161.542 24.0205H165.783L167.318 15.3848ZM180.365 24.0205L184.478 1.01677H180.237L176.125 24.0205H180.365ZM169.098 7.72863L168.793 9.41737H172.319L172.624 7.72863H169.098ZM168.762 6.74908L168.104 10.3969H172.655L173.313 6.74908H168.762ZM181.775 25L185.446 4.44152L185.447 4.43557C185.936 1.75113 187.137 0 188.566 0H200L195.538 25H190.253L191.295 19.2305H188.079L187.037 25H181.775ZM187.744 18.2509H191.984L190.942 24.0205H195.201L199.313 0.979547H188.566C187.342 0.979547 186.318 2.46846 185.898 4.77627L182.461 24.0205H186.702L187.744 18.2509ZM190.128 7.72863L189.452 11.5391H192.67L193.346 7.72863H190.128ZM189.791 6.74908L188.767 12.5186H193.008L194.031 6.74908H189.791Z" fill="black"/>
</svg>
