<svg width="201" height="26" viewBox="0 0 201 26" fill="none" xmlns="http://www.w3.org/2000/svg">
<path d="M20.7867 1.71854L19.5877 7.48807H9.63219L7.23429 18.9899H12.2014L13.4003 13.2576H18.3674L16.7616 20.9627C16.2692 23.3078 15.0703 24.7594 13.6358 24.7594H1.04688L5.07191 5.51526C5.56433 3.20745 6.76328 1.71854 8.19773 1.71854H20.7867Z" fill="white"/>
<path d="M23.2386 1.75576H28.2057L24.5874 19.0271H32.4662L31.2672 24.7594H18.4214L23.2386 1.75576Z" fill="white"/>
<path d="M51.9066 1.71854H39.8101C38.397 1.71854 37.1981 3.20745 36.7057 5.51526L32.6806 24.7594H44.7771C46.1902 24.7594 47.3891 23.2705 47.8816 20.9627L51.9066 1.71854ZM38.8466 18.9899L41.2659 7.48807H45.7406L43.3213 18.9899H38.8466Z" fill="white"/>
<path d="M49.5534 24.7594H54.5204L56.3188 16.1238H58.6097L61.136 24.7594H66.1031L63.5767 16.1238H63.9407C65.3538 16.1238 66.5527 14.6348 67.0451 12.327L68.4582 5.58971C68.865 3.69134 68.0514 1.71854 66.9167 1.71854H54.3706L49.5534 24.7594ZM58.0102 7.48807H63.3412L62.5705 11.1359H57.2395L58.0102 7.48807Z" fill="white"/>
<path d="M66.6352 24.7594H71.6022L76.4194 1.75576H71.4524L66.6352 24.7594Z" fill="white"/>
<path d="M74.0575 24.7594H79.0245L80.2449 18.9899H85.212L83.9916 24.7594H88.9801L93.7973 1.71854H81.2083C79.7739 1.71854 78.5749 3.20745 78.0825 5.51526L74.0575 24.7594ZM82.6428 7.48807H87.6099L86.4109 13.2576H81.4439L82.6428 7.48807Z" fill="white"/>
<path d="M118.301 1.71854L117.102 7.48807H107.147L106.547 10.3542H114.127C115.283 10.3542 116.075 12.327 115.689 14.2254L114.276 20.9999C113.784 23.3078 112.585 24.7594 111.151 24.7594H98.5616L99.7606 18.9899H109.716L110.316 16.1238H102.737C101.58 16.1238 100.788 14.1509 101.174 12.2526L102.587 5.51526C103.079 3.20745 104.278 1.71854 105.712 1.71854H118.301Z" fill="white"/>
<path d="M135.162 1.71854H123.066C121.653 1.71854 120.454 3.20745 119.961 5.51526L115.936 24.7594H128.033C129.446 24.7594 130.645 23.2705 131.137 20.9627L135.162 1.71854ZM122.102 18.9899L124.521 7.48807H128.996L126.577 18.9899H122.102Z" fill="white"/>
<path d="M150.622 1.71854L149.423 7.48807H140.902L138.482 18.9899H147.004L145.805 24.7594H134.672C133.537 24.7594 132.723 22.7494 133.13 20.8883L136.341 5.51526C136.834 3.20745 138.033 1.71854 139.446 1.71854H150.622Z" fill="white"/>
<path d="M165.864 1.71854L164.665 7.48807H156.144L153.724 18.9899H162.245L161.047 24.7594H149.913C148.779 24.7594 147.965 22.7494 148.372 20.8883L151.583 5.51526C152.076 3.20745 153.275 1.71854 154.688 1.71854H165.864Z" fill="white"/>
<path d="M183.032 1.71854L181.834 7.48807H171.878L171.279 10.4659H179.564L178.472 15.2676H170.187L169.48 18.9899H179.414L178.215 24.7594H163.293L168.11 1.71854H183.032Z" fill="white"/>
<path d="M180.667 24.7594H185.634L187.433 16.1238H189.724L192.25 24.7594H197.217L194.691 16.1238H195.055C196.468 16.1238 197.667 14.6348 198.159 12.327L199.572 5.58971C199.979 3.69134 199.165 1.71854 198.031 1.71854H185.484L180.667 24.7594ZM189.124 7.48807H194.455L193.684 11.1359H188.353L189.124 7.48807Z" fill="white"/>
<path fill-rule="evenodd" clip-rule="evenodd" d="M21.589 0.738998L19.9829 8.46763H10.027L8.03749 18.0104H11.8064L13.0054 12.2781H19.1705L17.2906 21.2987C16.7167 24.0317 15.3057 25.739 13.6355 25.739H0.242188L4.54336 5.17457C5.11615 2.49013 6.52289 0.738998 8.19743 0.738998H21.589ZM12.2011 18.9899H7.23399L9.63189 7.48808H19.5874L20.7864 1.71855H8.19743C6.76298 1.71855 5.56403 3.20746 5.07161 5.51527L1.04657 24.7595H13.6355C15.07 24.7595 16.2689 23.3078 16.7613 20.9627L18.3671 13.2576H13.4L12.2011 18.9899ZM22.8438 0.77622H29.0102L25.3919 18.0476H33.2703L31.6616 25.739H17.6164L22.8438 0.77622ZM24.5871 19.0271L28.2054 1.75577H23.2383L18.4211 24.7595H31.2669L32.4659 19.0271H24.5871ZM52.7107 0.738998L48.4095 21.3034C47.8375 23.9843 46.4321 25.739 44.7768 25.739H31.8759L36.1771 5.17457C36.7492 2.49365 38.1545 0.738998 39.8098 0.738998H52.7107ZM36.7054 5.51527C37.1978 3.20746 38.3967 1.71855 39.8098 1.71855H51.9063L47.8813 20.9627C47.3888 23.2705 46.1899 24.7595 44.7768 24.7595H32.6803L36.7054 5.51527ZM38.8463 18.9899H43.321L45.7403 7.48808H41.2656L38.8463 18.9899ZM39.6523 18.0104H42.9271L44.9343 8.46763H41.6595L39.6523 18.0104ZM48.7488 25.739L53.9756 0.738998H66.9164C68.4378 0.738998 69.5305 3.38189 68.9867 5.92784C68.9864 5.92912 68.9861 5.9304 68.9858 5.93168L67.5731 12.6677C67.064 15.0538 65.8948 16.7061 64.4768 17.0407L66.3271 23.3656L71.0576 0.77622H77.2238L71.9964 25.739H60.7902L58.2638 17.1033H56.7137L54.9153 25.739H48.7488ZM56.3185 16.1238H58.6094L61.1357 24.7595H66.1028L63.5764 16.1238H63.9404C64.029 16.1238 64.1167 16.1179 64.2035 16.1064C65.501 15.9339 66.5833 14.4902 67.0448 12.327L68.4579 5.58971C68.8647 3.69135 68.0511 1.71855 66.9164 1.71855H54.3702L49.5531 24.7595H54.5201L56.3185 16.1238ZM71.6019 24.7595L76.4191 1.75577H71.4521L66.6349 24.7595H71.6019ZM58.4032 8.46763L58.0464 10.1564H62.1769L62.5337 8.46763H58.4032ZM58.0099 7.48808L57.2392 11.1359H62.5702L63.3409 7.48808H58.0099ZM73.2528 25.739L77.5527 5.18052L77.554 5.17457C78.1268 2.49013 79.5335 0.738998 81.208 0.738998H94.6013L89.3745 25.739H83.1838L84.4042 19.9695H80.6377L79.4174 25.739H73.2528ZM80.2446 18.9899H85.2117L83.9913 24.7595H88.9798L93.797 1.71855H81.208C79.7736 1.71855 78.5746 3.20746 78.0822 5.51527L74.0572 24.7595H79.0243L80.2446 18.9899ZM83.038 8.46763L82.2462 12.2781H86.0151L86.8069 8.46763H83.038ZM82.6425 7.48808L81.4436 13.2576H86.4106L87.6096 7.48808H82.6425ZM119.104 0.738998L117.498 8.46763H107.541L107.352 9.37468H114.126C115.677 9.37468 116.733 12.0256 116.22 14.5514L116.219 14.5594L114.804 21.3407C114.229 24.035 112.819 25.739 111.15 25.739H97.7587L99.3648 18.0104H109.321L109.511 17.1033H102.736C101.185 17.1033 100.129 14.4524 100.642 11.9266L100.644 11.917L102.058 5.17457C102.631 2.49013 104.038 0.738998 105.712 0.738998H119.104ZM110.315 16.1238L109.716 18.9899H99.7603L98.5613 24.7595H111.15C112.585 24.7595 113.784 23.3078 114.276 21L115.689 14.2254C116.075 12.327 115.282 10.3542 114.126 10.3542H106.547L107.147 7.48808H117.102L118.301 1.71855H105.712C104.278 1.71855 103.079 3.20746 102.586 5.51527L101.173 12.2526C100.788 14.151 101.58 16.1238 102.736 16.1238H110.315ZM135.966 0.738998L131.666 21.2975L131.665 21.3034C131.093 23.9843 129.688 25.739 128.032 25.739H115.131L119.431 5.18052L119.433 5.17457C120.005 2.49365 121.41 0.738998 123.065 0.738998H135.966ZM119.961 5.51527C120.453 3.20746 121.652 1.71855 123.065 1.71855H135.162L131.137 20.9627C130.644 23.2705 129.445 24.7595 128.032 24.7595H115.936L119.961 5.51527ZM122.102 18.9899H126.576L128.996 7.48808H124.521L122.102 18.9899ZM122.908 18.0104H126.183L128.19 8.46763H124.915L122.908 18.0104ZM151.424 0.738998L149.818 8.46763H141.295L139.288 18.0104H147.806L146.2 25.739H134.671C133.149 25.739 132.056 23.0569 132.601 20.5475C132.602 20.5451 132.603 20.5427 132.603 20.5403L135.812 5.18087L135.813 5.17457C136.385 2.49365 137.79 0.738998 139.446 0.738998H151.424ZM133.13 20.8883C132.723 22.7494 133.536 24.7595 134.671 24.7595H145.804L147.003 18.9899H138.482L140.901 7.48808H149.423L150.621 1.71855H139.446C138.033 1.71855 136.834 3.20746 136.341 5.51527L133.13 20.8883ZM166.666 0.738998L165.06 8.46763H156.537L154.53 18.0104H163.048L161.442 25.739H149.913C148.391 25.739 147.298 23.0577 147.843 20.5485C147.844 20.5458 147.844 20.5431 147.845 20.5403L151.054 5.18087L151.055 5.17457C151.627 2.49365 153.032 0.738998 154.688 0.738998H166.666ZM148.372 20.8883C147.965 22.7494 148.778 24.7595 149.913 24.7595H161.046L162.245 18.9899H153.724L156.143 7.48808H164.664L165.863 1.71855H154.688C153.274 1.71855 152.076 3.20746 151.583 5.51527L148.372 20.8883ZM183.835 0.738998L182.229 8.46763H172.277L172.072 9.48635H180.392L178.855 16.2472H170.594L170.259 18.0104H180.217L178.61 25.739H162.488L167.715 0.738998H183.835ZM169.48 18.9899L170.186 15.2676H178.472L179.564 10.4659H171.278L171.878 7.48808H181.833L183.032 1.71855H168.11L163.292 24.7595H178.215L179.414 18.9899H169.48ZM179.863 25.739L185.089 0.738998H198.03C199.552 0.738998 200.644 3.38189 200.101 5.92784C200.1 5.92912 200.1 5.9304 200.1 5.93168L198.688 12.6626L198.687 12.6677C198.178 15.0538 197.009 16.7061 195.591 17.0407L198.135 25.739H191.904L189.378 17.1033H187.828L186.029 25.739H179.863ZM187.432 16.1238H189.723L192.25 24.7595H197.217L194.69 16.1238H195.054C195.143 16.1238 195.231 16.1179 195.317 16.1064C196.615 15.9339 197.697 14.4902 198.159 12.327L199.572 5.58971C199.979 3.69135 199.165 1.71855 198.03 1.71855H185.484L180.667 24.7595H185.634L187.432 16.1238ZM189.517 8.46763L189.16 10.1564H193.291L193.648 8.46763H189.517ZM189.124 7.48808L188.353 11.1359H193.684L194.455 7.48808H189.124Z" fill="black"/>
</svg>
