<svg width="201" height="26" viewBox="0 0 201 26" fill="none" xmlns="http://www.w3.org/2000/svg">
<path d="M4.82746 1.75576H8.87872L5.92759 19.0271H12.3537L11.3758 24.7594H0.898438L4.82746 1.75576Z" fill="white"/>
<path d="M12.5286 24.7594H16.5799L20.5089 1.75576H16.4576L12.5286 24.7594Z" fill="white"/>
<path d="M34.6827 1.71854H22.5115L18.5824 24.7594H22.6337L24.118 16.1238H30.8759L31.7141 11.1359H24.9562L25.5848 7.48807H33.7048L34.6827 1.71854Z" fill="white"/>
<path d="M48.8538 1.71854L47.8759 7.48807H39.7559L39.267 10.4659H46.0249L45.1343 15.2676H38.3764L37.8001 18.9899H45.9027L44.9248 24.7594H32.7535L36.6826 1.71854H48.8538Z" fill="white"/>
<path d="M52.9924 24.7594H55.9776L56.711 20.5082H59.6961L58.9627 24.7594H61.9607L64.8558 7.78193H57.29C56.4279 7.78193 55.7074 8.87902 55.4114 10.5795L52.9924 24.7594ZM58.1521 12.0332H61.1372L60.4167 16.2844H57.4316L58.1521 12.0332Z" fill="white"/>
<path d="M63.4343 24.7594H66.4194L67.8734 16.2844L69.4046 24.7594H72.4026L75.2976 7.78193H72.3125L70.8585 16.2844L69.3274 7.78193H66.3294L63.4343 24.7594Z" fill="white"/>
<path d="M76.7712 7.78193H84.0925C84.7745 7.78193 85.2634 9.23558 85.0189 10.6344L83.0889 21.9619C82.793 23.6623 82.0724 24.7594 81.2232 24.7594H73.8761L76.7712 7.78193ZM79.0358 12.0332L77.5818 20.5082H80.3482L81.8022 12.0332H79.0358Z" fill="white"/>
<path d="M105.591 1.71854L104.613 7.48807H96.4932L96.0043 10.3542H102.186C103.129 10.3542 103.775 12.327 103.461 14.2254L102.308 20.9999C101.907 23.3078 100.929 24.7594 99.7587 24.7594H89.4908L90.4687 18.9899H98.5887L99.0776 16.1238H92.896C91.953 16.1238 91.3069 14.1509 91.6212 12.2526L92.7737 5.51526C93.1754 3.20745 94.1533 1.71854 95.3232 1.71854H105.591Z" fill="white"/>
<path d="M113.86 7.48807L117.23 7.52529L118.208 1.75576C114.384 1.71854 110.56 1.71854 106.735 1.71854L105.757 7.48807H109.809L106.857 24.7594H110.909L113.86 7.48807Z" fill="white"/>
<path d="M115.94 24.7594H119.991L121.458 16.1238H123.327L125.387 24.7594H129.438L127.378 16.1238H127.675C128.827 16.1238 129.805 14.6348 130.207 12.327L131.359 5.5897C131.691 3.69134 131.028 1.71854 130.102 1.71854H119.869L115.94 24.7594ZM122.838 7.48807H127.186L126.557 11.1359H122.209L122.838 7.48807Z" fill="white"/>
<path d="M133.574 1.71854H137.643L134.692 18.9899H138.429L141.38 1.71854H145.431L142.148 20.9627C141.747 23.3078 140.769 24.7594 139.599 24.7594H131.584C130.641 24.7594 129.977 22.7866 130.309 20.8883L133.574 1.71854Z" fill="white"/>
<path d="M159.615 1.71854L158.637 7.48807H150.517L148.561 18.9899H152.613L153.591 13.2576H157.642L156.332 20.9627C155.931 23.3078 154.953 24.7594 153.783 24.7594H143.515L146.798 5.51526C147.199 3.20745 148.177 1.71854 149.347 1.71854H159.615Z" fill="white"/>
<path d="M173.786 1.71854L172.808 7.48807H164.688L162.733 18.9899H166.784L167.762 13.2576H171.813L170.503 20.9627C170.102 23.3078 169.124 24.7594 167.954 24.7594H157.686L160.969 5.51526C161.37 3.20745 162.348 1.71854 163.518 1.71854H173.786Z" fill="white"/>
<path d="M175.786 1.75576H179.837L176.886 19.0271H183.312L182.334 24.7594H171.857L175.786 1.75576Z" fill="white"/>
<path d="M199.587 1.71854L198.61 7.48807H190.49L190.001 10.4659H196.759L195.868 15.2676H189.11L188.534 18.9899H196.636L195.658 24.7594H183.487L187.416 1.71854H199.587Z" fill="white"/>
<path fill-rule="evenodd" clip-rule="evenodd" d="M4.50582 0.77622H9.53526L6.58413 18.0476H13.0099L11.6978 25.739H0.242188L4.50582 0.77622ZM5.92769 19.0271L8.87882 1.75577H4.82756L0.898537 24.7595H11.3759L12.3538 19.0271H5.92769ZM11.8724 25.739L16.136 0.77622H21.1653L16.9017 25.739H11.8724ZM16.58 24.7595H12.5287L16.4577 1.75577H20.509L16.58 24.7595ZM35.3374 0.738998L34.0275 8.46763H25.9057L25.6147 10.1564H32.367L31.1995 17.1033H24.4391L22.9548 25.739H17.9266L22.1897 0.738998H35.3374ZM24.1181 16.1238H30.876L31.7142 11.1359H24.9563L25.5849 7.48808H33.7049L34.6828 1.71855H22.5116L18.5825 24.7595H22.6338L24.1181 16.1238ZM49.5085 0.738998L48.1986 8.46763H40.0821L39.9148 9.48635H46.7008L45.4469 16.2472H38.7088L38.4358 18.0104H46.5574L45.2474 25.739H32.0976L36.3607 0.738998H49.5085ZM37.8002 18.9899L38.3765 15.2676H45.1344L46.025 10.4659H39.2671L39.756 7.48808H47.876L48.8539 1.71855H36.6827L32.7536 24.7595H44.9249L45.9028 18.9899H37.8002ZM52.3365 25.739L54.9807 10.2388C55.3422 8.16171 56.2322 6.80239 57.2901 6.80239H65.5119L62.2827 25.739H58.3042L59.0376 21.4878H57.0317L56.2983 25.739H52.3365ZM56.7111 20.5082H59.6962L58.9628 24.7595H61.9608L64.8559 7.78194H57.2901C56.428 7.78194 55.7075 8.87903 55.4115 10.5795L52.9925 24.7595H55.9777L56.7111 20.5082ZM58.4748 13.0127L58.0863 15.3049H60.0942L60.4827 13.0127H58.4748ZM58.1522 12.0332L57.4317 16.2844H60.4168L61.1373 12.0332H58.1522ZM62.7784 25.739L66.0076 6.80239H69.6433L70.8475 13.4893L71.991 6.80239H75.9537L72.7246 25.739H69.0892L67.8846 19.0716L66.7408 25.739H62.7784ZM67.8735 16.2844L69.4047 24.7595H72.4027L75.2978 7.78194H72.3126L70.8586 16.2844L69.3275 7.78194H66.3295L63.4344 24.7595H66.4195L67.8735 16.2844ZM76.4494 6.80239H84.0926C85.0898 6.80239 85.8063 8.92509 85.4506 10.971L85.4497 10.9764L83.5199 22.3026C83.159 24.3762 82.2701 25.739 81.2233 25.739H73.2203L76.4494 6.80239ZM85.019 10.6344C85.2635 9.23559 84.7746 7.78194 84.0926 7.78194H76.7713L73.8762 24.7595H81.2233C82.0725 24.7595 82.7931 23.6624 83.089 21.9619L85.019 10.6344ZM77.5819 20.5082H80.3483L81.8023 12.0332H79.0359L77.5819 20.5082ZM79.3571 13.0127L78.2393 19.5287H80.0271L81.145 13.0127H79.3571ZM106.246 0.738998L104.936 8.46763H96.8152L96.6604 9.37469H102.186C103.451 9.37469 104.312 12.0256 103.894 14.5514L103.893 14.5594L102.739 21.3407C102.27 24.035 101.12 25.739 99.7588 25.739H88.8363L90.1462 18.0104H98.2669L98.4216 17.1033H92.8961C91.6312 17.1033 90.7698 14.4524 91.188 11.9266L91.1896 11.917L92.343 5.17457C92.8102 2.49013 93.9575 0.738998 95.3233 0.738998H106.246ZM99.0777 16.1238L98.5888 18.9899H90.4688L89.4909 24.7595H99.7588C100.929 24.7595 101.907 23.3078 102.308 21L103.461 14.2254C103.775 12.327 103.129 10.3542 102.186 10.3542H96.0044L96.4933 7.48808H104.613L105.591 1.71855H95.3233C94.1534 1.71855 93.1755 3.20746 92.7738 5.51527L91.6213 12.2526C91.307 14.151 91.9531 16.1238 92.8961 16.1238H99.0777ZM117.23 7.5253L113.86 7.48808L110.909 24.7595H106.858L109.809 7.48808H105.757L106.735 1.71855C110.397 1.71855 114.059 1.71855 117.72 1.75122C117.883 1.75267 118.045 1.75419 118.208 1.75577L117.23 7.5253ZM109.152 8.46763L106.201 25.739H111.231L114.181 8.47118L117.552 8.50842L118.862 0.782572L118.21 0.776231C114.385 0.738998 110.56 0.738998 106.736 0.738998H106.413L105.103 8.46763H109.152ZM115.284 25.739L119.547 0.738998H130.102C131.343 0.738998 132.234 3.38189 131.791 5.92784L131.79 5.93168L130.639 12.6626L130.638 12.6677C130.223 15.0538 129.269 16.7061 128.112 17.0407L130.188 25.739H125.105L123.045 17.1033H121.781L120.314 25.739H115.284ZM121.458 16.1238L119.991 24.7595H115.94L119.869 1.71855H130.102C131.028 1.71855 131.691 3.69135 131.359 5.58971L130.207 12.327C129.83 14.4902 128.948 15.9339 127.889 16.1064C127.819 16.1179 127.747 16.1238 127.675 16.1238H127.378L129.439 24.7595H125.387L123.327 16.1238H121.458ZM123.159 8.46763L122.868 10.1564H126.237L126.528 8.46763H123.159ZM122.838 7.48808L122.209 11.1359H126.557L127.186 7.48808H122.838ZM133.253 0.738998H138.3L135.349 18.0104H138.107L141.058 0.738998H146.088L142.58 21.2975C142.112 24.0305 140.961 25.739 139.599 25.739H131.584C130.33 25.739 129.433 23.1051 129.878 20.5501L129.878 20.5463L133.253 0.738998ZM130.309 20.8883C129.977 22.7866 130.641 24.7595 131.584 24.7595H139.599C140.769 24.7595 141.747 23.3078 142.149 20.9627L145.431 1.71855H141.38L138.429 18.9899H134.692L137.643 1.71855H133.575L130.309 20.8883ZM160.27 0.738998L158.96 8.46763H150.84L149.217 18.0104H152.291L153.269 12.2781H158.297L156.764 21.2964L156.764 21.2987C156.296 24.0317 155.145 25.739 153.783 25.739H142.859L146.366 5.18052L146.367 5.17457C146.834 2.49013 147.982 0.738998 149.347 0.738998H160.27ZM152.613 18.9899H148.562L150.517 7.48808H158.637L159.615 1.71855H149.347C148.177 1.71855 147.2 3.20746 146.798 5.51527L143.515 24.7595H153.783C154.953 24.7595 155.931 23.3078 156.332 20.9627L157.642 13.2576H153.591L152.613 18.9899ZM174.441 0.738998L173.131 8.46763H165.011L163.388 18.0104H166.462L167.44 12.2781H172.468L170.935 21.2964L170.935 21.2987C170.467 24.0317 169.316 25.739 167.954 25.739H157.03L160.537 5.18052L160.538 5.17457C161.005 2.49013 162.153 0.738998 163.518 0.738998H174.441ZM166.784 18.9899H162.733L164.688 7.48808H172.808L173.786 1.71855H163.518C162.348 1.71855 161.371 3.20746 160.969 5.51527L157.686 24.7595H167.954C169.124 24.7595 170.102 23.3078 170.503 20.9627L171.813 13.2576H167.762L166.784 18.9899ZM175.464 0.77622H180.494L177.543 18.0476H183.968L182.656 25.739H171.201L175.464 0.77622ZM176.886 19.0271L179.837 1.75577H175.786L171.857 24.7595H182.335L183.312 19.0271H176.886ZM200.242 0.738998L198.932 8.46763H190.816L190.648 9.48635H197.434L196.181 16.2472H189.442L189.169 18.0104H197.291L195.981 25.739H182.831L187.094 0.738998H200.242ZM188.534 18.9899L189.11 15.2676H195.868L196.759 10.4659H190.001L190.49 7.48808H198.61L199.588 1.71855H187.416L183.487 24.7595H195.659L196.636 18.9899H188.534Z" fill="black"/>
</svg>
