<svg width="201" height="26" viewBox="0 0 201 26" fill="none" xmlns="http://www.w3.org/2000/svg">
<path d="M18.592 1.72366L17.5209 7.49056H8.62692L8.09137 10.467H15.4935L14.518 15.2666H7.1159L6.48471 18.9871H15.3596L14.2885 24.754H0.957031L5.26059 1.72366H18.592Z" fill="white"/>
<path d="M34.114 1.72366L33.0429 7.49056H24.1489L22.0067 18.9871H26.4441L27.5152 13.2575H31.9526L30.5181 20.959C30.0782 23.303 29.0071 24.754 27.7256 24.754H16.479L20.0748 5.51865C20.5148 3.21189 21.5859 1.72366 22.8674 1.72366H34.114Z" fill="white"/>
<path d="M35.0038 24.754L36.8783 14.6713L34.8699 1.72366L39.3074 1.79807L40.1107 6.89527C40.2064 7.60217 40.3402 8.23467 40.3402 9.20202C40.5506 8.3835 40.9906 7.41615 41.2583 6.74644L43.8022 1.72366H48.1823L41.2775 14.9317L39.4413 24.754H35.0038Z" fill="white"/>
<path d="M45.3188 24.754H49.7562L51.3629 16.1223H58.1721C59.4344 16.1223 60.5055 14.6341 60.9455 12.3273L62.2078 5.59306C62.5713 3.69557 61.8444 1.72366 60.8307 1.72366H49.6223L45.3188 24.754ZM52.128 11.1367L52.8165 7.49056H57.5983L56.9288 11.1367H52.128Z" fill="white"/>
<path d="M71.3758 7.49056L75.0673 7.52776L76.1384 1.76087C71.9496 1.72366 67.7608 1.72366 63.572 1.72366L62.5009 7.49056H66.9383L63.7059 24.754H68.1433L71.3758 7.49056Z" fill="white"/>
<path d="M80.3005 24.754H83.5702L84.3735 20.5047H87.6432L86.8399 24.754H90.1237L93.2947 7.78429H85.0077C84.0635 7.78429 83.2742 8.88088 82.9501 10.5806L80.3005 24.754ZM85.952 12.0336H89.2217L88.4325 16.2829H85.1628L85.952 12.0336Z" fill="white"/>
<path d="M91.7377 24.754H95.0074L96.6 16.2829L98.2771 24.754H101.561L104.732 7.78429H101.462L99.8697 16.2829L98.1925 7.78429H94.9088L91.7377 24.754Z" fill="white"/>
<path d="M106.346 7.78429H114.365C115.112 7.78429 115.648 9.23727 115.38 10.6354L113.266 21.9577C112.942 23.6574 112.153 24.754 111.222 24.754H103.175L106.346 7.78429ZM108.826 12.0336L107.234 20.5047H110.264L111.857 12.0336H108.826Z" fill="white"/>
<path d="M123.74 1.72366H128.177L127.221 15.527C127.699 13.5923 128.694 9.94614 128.809 9.49967L131.123 1.72366H134.088L133.304 15.4898L138.468 1.72366H142.867L134.222 24.754H129.784L130.473 13.183L126.819 24.754H122.382L123.74 1.72366Z" fill="white"/>
<path d="M157.179 1.72366H146.372C145.11 1.72366 144.038 3.21189 143.599 5.51865L140.003 24.754H150.809C152.072 24.754 153.143 23.2658 153.583 20.959L157.179 1.72366ZM145.511 18.9871L147.673 7.49056H151.67L149.509 18.9871H145.511Z" fill="white"/>
<path d="M155.076 24.754H159.514L161.12 16.1223H163.167L165.424 24.754H169.861L167.604 16.1223H167.93C169.192 16.1223 170.263 14.6341 170.703 12.3273L171.965 5.59306C172.329 3.69557 171.602 1.72366 170.588 1.72366H159.38L155.076 24.754ZM162.631 7.49056H167.394L166.706 11.1367H161.943L162.631 7.49056Z" fill="white"/>
<path d="M174.64 1.76087H179.078L175.845 19.0243H182.884L181.813 24.754H170.337L174.64 1.76087Z" fill="white"/>
<path d="M187.379 1.72366H198.262C199.276 1.72366 200.003 3.69557 199.64 5.59306L196.771 20.959C196.331 23.2658 195.259 24.754 193.997 24.754H183.076L187.379 1.72366ZM190.746 7.49056L188.584 18.9871H192.696L194.858 7.49056H190.746Z" fill="white"/>
<path fill-rule="evenodd" clip-rule="evenodd" d="M19.3128 0.744599L17.8779 8.46969H8.98771L8.80449 9.48795H16.2374L14.8639 16.2457H7.48351L7.18453 18.0081H16.0803L14.6455 25.7332H0.242188L4.91166 0.744599H19.3128ZM6.48839 18.9872L7.11957 15.2666H14.5217L15.4972 10.4671H8.09505L8.6306 7.49059H17.5246L18.5957 1.7237H5.26426L0.960707 24.7541H14.2922L15.3633 18.9872H6.48839ZM34.196 0.744599H22.871C21.375 0.744599 20.1183 2.49493 19.6066 5.17814L15.764 25.7332H27.7293C29.2214 25.7332 30.4819 24.0266 30.9946 21.2949L32.6741 12.2784H27.1663L26.0952 18.0081H22.7281L24.5055 8.46969H33.3999L34.4867 2.61847L36.3519 14.6435L34.2903 25.7332H39.7975L41.7153 15.4745L49.1943 1.16814L44.6039 25.7332H50.113L51.7196 17.1014H58.1757C59.6545 17.1014 60.91 15.3476 61.4211 12.6679L62.208 8.46969H66.223L62.9905 25.7332H68.4993L71.7311 8.47325L75.4236 8.51046L76.8579 0.788152L76.1443 0.781814C71.9544 0.744599 67.7647 0.744599 63.5763 0.744599H63.2223L62.7208 3.44508C62.4732 1.91342 61.7385 0.744599 60.8344 0.744599H43.5952L40.8828 6.10015L40.8647 6.14537C40.808 6.28723 40.7427 6.44417 40.6694 6.6204L40.6438 6.68186C40.6345 6.70423 40.6251 6.72685 40.6156 6.74968C40.6106 6.71441 40.6057 6.67989 40.6012 6.64613L40.5986 6.62712L39.6842 0.825229L34.1942 0.73317L34.196 0.744599ZM40.7779 7.9274C40.6094 8.35254 40.4484 8.79565 40.3439 9.20206C40.3439 8.61038 40.2938 8.14397 40.233 7.70919C40.2155 7.58355 40.197 7.46055 40.1786 7.33794C40.1566 7.19114 40.1346 7.04488 40.1144 6.8953L39.3111 1.79811L34.8736 1.7237L36.8819 14.6713L35.0075 24.7541H39.445L41.2811 14.9317L48.186 1.7237H43.8059L41.262 6.74648C41.2021 6.89635 41.1335 7.06114 41.0609 7.23583C40.9701 7.45415 40.8728 7.68792 40.7779 7.9274ZM62.2115 5.5931C62.5749 3.6956 61.8481 1.7237 60.8344 1.7237H49.626L45.3225 24.7541H49.7599L51.3666 16.1223H58.1757C59.4381 16.1223 60.5092 14.6341 60.9491 12.3273L62.2115 5.5931ZM71.3794 7.49059L75.0709 7.5278L76.142 1.7609C75.9639 1.75932 75.7858 1.75781 75.6077 1.75636C71.597 1.7237 67.5863 1.7237 63.5757 1.7237L62.5045 7.49059H66.942L63.7095 24.7541H68.147L71.3794 7.49059ZM24.1525 7.49059H33.0466L34.1177 1.7237H22.871C21.5895 1.7237 20.5184 3.21193 20.0785 5.51869L16.4826 24.7541H27.7293C29.0108 24.7541 30.0819 23.303 30.5218 20.9591L31.9563 13.2575H27.5189L26.4478 18.9872H22.0103L24.1525 7.49059ZM52.1316 11.1368H56.9325L57.6019 7.49059H52.8202L52.1316 11.1368ZM52.8528 10.1577H56.5778L56.8877 8.46969H53.1715L52.8528 10.1577ZM79.5856 25.7332L82.4807 10.246L82.4818 10.2401C82.8778 8.16392 83.8527 6.80522 85.0114 6.80522H94.0169L90.48 25.7332H86.1222L86.9255 21.4839H84.7284L83.9251 25.7332H79.5856ZM87.6469 20.5048H84.3772L83.5739 24.7541H80.3042L82.9538 10.5806C83.2779 8.88091 84.0671 7.78432 85.0114 7.78432H93.2984L90.1274 24.7541H86.8436L87.6469 20.5048ZM86.309 13.0127L85.8835 15.3038H88.0828L88.5083 13.0127H86.309ZM85.9557 12.0336L85.1664 16.2829H88.4361L89.2254 12.0336H85.9557ZM91.0229 25.7332L94.5598 6.80522H98.5422L99.8612 13.4891L101.114 6.80522H105.454L101.917 25.7332H97.9353L96.6158 19.0688L95.363 25.7332H91.0229ZM95.0111 24.7541H91.7414L94.9124 7.78432H98.1962L99.8734 16.2829L101.466 7.78432H104.736L101.565 24.7541H98.2808L96.6037 16.2829L95.0111 24.7541ZM105.997 6.80522H114.369C115.461 6.80522 116.246 8.92695 115.856 10.9719C115.856 10.9737 115.856 10.9755 115.855 10.9773L113.741 22.2983C113.346 24.371 112.373 25.7332 111.226 25.7332H102.46L105.997 6.80522ZM115.384 10.6355C115.651 9.2373 115.116 7.78432 114.369 7.78432H106.35L103.179 24.7541H111.226C112.156 24.7541 112.945 23.6575 113.27 21.9578L115.384 10.6355ZM107.238 20.5048H110.268L111.86 12.0336H108.83L107.238 20.5048ZM109.182 13.0127L107.958 19.5257H109.916L111.14 13.0127H109.182ZM123.295 0.744599H128.757L128.117 9.97752C128.126 9.9455 128.134 9.91411 128.142 9.88338C128.257 9.45673 128.338 9.15689 128.362 9.06184L128.369 9.03505L130.837 0.744599H134.654L134.016 11.9399L138.216 0.744599H143.861L134.481 25.7332H129.223L129.715 17.4662L127.105 25.7332H121.821L123.295 0.744599ZM126.823 24.7541H122.386L123.744 1.7237H128.181L127.225 15.527C127.407 14.7903 127.664 13.8054 127.919 12.8435C128.158 11.9394 128.396 11.0556 128.567 10.4173C128.692 9.95142 128.782 9.61635 128.812 9.4997L131.127 1.7237H134.091L133.307 15.4898L138.471 1.7237H142.871L134.225 24.7541H129.788L130.476 13.1831L126.823 24.7541ZM157.901 0.744599L154.06 21.2937L154.058 21.2996C153.547 23.9793 152.292 25.7332 150.813 25.7332H139.288L143.129 5.18409L143.13 5.17814C143.641 2.49845 144.897 0.744599 146.376 0.744599H157.901ZM143.602 5.51869C144.042 3.21193 145.113 1.7237 146.376 1.7237H157.182L153.587 20.9591C153.147 23.2658 152.075 24.7541 150.813 24.7541H140.006L143.602 5.51869ZM145.515 18.9872H149.512L151.674 7.49059H147.676L145.515 18.9872ZM146.235 18.0081H149.161L150.954 8.46969H148.028L146.235 18.0081ZM154.362 25.7332L159.031 0.744599H170.592C171.951 0.744599 172.927 3.38629 172.442 5.93107C172.441 5.93235 172.441 5.93363 172.441 5.93491L171.18 12.6628L171.179 12.6679C170.724 15.0528 169.679 16.7044 168.413 17.0389L170.066 23.3609L174.292 0.781803H179.801L176.568 18.0453H183.606L182.169 25.7332H165.119L162.862 17.1014H161.477L159.871 25.7332H154.362ZM161.124 16.1223L159.517 24.7541H155.08L159.384 1.7237H170.592C171.606 1.7237 172.333 3.6956 171.969 5.5931L170.707 12.3273C170.294 14.4895 169.328 15.9326 168.168 16.105C168.091 16.1165 168.012 16.1223 167.933 16.1223H167.608L169.865 24.7541H165.428L163.171 16.1223H161.124ZM181.817 24.7541L182.888 19.0244H175.849L179.081 1.7609H174.644L170.34 24.7541H181.817ZM162.986 8.46969L162.668 10.1577H166.358L166.677 8.46969H162.986ZM162.635 7.49059L161.947 11.1368H166.709L167.398 7.49059H162.635ZM187.03 0.744599H198.266C199.625 0.744599 200.602 3.38664 200.116 5.93158C200.115 5.93269 200.115 5.9338 200.115 5.93491L197.247 21.2933L197.246 21.2996C196.735 23.9793 195.48 25.7332 194.001 25.7332H182.361L187.03 0.744599ZM199.643 5.5931C200.007 3.6956 199.28 1.7237 198.266 1.7237H187.383L183.079 24.7541H194.001C195.263 24.7541 196.334 23.2658 196.774 20.9591L199.643 5.5931ZM188.588 18.9872H192.7L194.861 7.49059H190.749L188.588 18.9872ZM191.101 8.46969L189.308 18.0081H192.348L194.141 8.46969H191.101Z" fill="black"/>
</svg>
