<svg width="201" height="25" viewBox="0 0 201 25" fill="none" xmlns="http://www.w3.org/2000/svg">
<path d="M10.927 6.61237L15.1293 6.65047L16.3486 0.743795C11.5802 0.705688 6.81188 0.705688 2.04353 0.705688L0.824219 6.61237H5.87563L2.19594 24.2943H7.24735L10.927 6.61237Z" fill="white"/>
<path d="M33.5958 0.705688H28.5444L26.759 9.16558H21.7076L23.493 0.705688H18.4198L13.5208 24.2943H18.5722L20.4665 15.0723H25.5179L23.6236 24.2943H28.6968L33.5958 0.705688Z" fill="white"/>
<path d="M51.2654 0.705688L50.0461 6.61237H39.9215L39.3118 9.66098H47.7381L46.6276 14.5769H38.2014L37.4829 18.3876H47.5857L46.3664 24.2943H31.1904L36.0894 0.705688H51.2654Z" fill="white"/>
<path d="M60.0516 0.705688H65.103L64.0143 14.8436C64.5587 12.862 65.6909 9.12747 65.8215 8.67018L68.4561 0.705688H71.831L70.9383 14.8055L76.8171 0.705688H81.8249L71.9834 24.2943H66.932L67.7158 12.4428L63.5571 24.2943H58.5057L60.0516 0.705688Z" fill="white"/>
<path d="M78.5644 24.2943H83.6158L84.8569 18.3876H89.9083L88.6672 24.2943H93.7404L98.6394 0.705688H85.8367C84.3778 0.705688 83.1585 2.22999 82.6578 4.59266L78.5644 24.2943ZM87.2955 6.61237H92.3469L91.1276 12.519H86.0762L87.2955 6.61237Z" fill="white"/>
<path d="M96.2339 24.2943H101.285L103.114 15.4533H105.444L108.013 24.2943H113.065L110.495 15.4533H110.866C112.303 15.4533 113.522 13.929 114.023 11.5664L115.46 4.66888C115.873 2.72539 115.046 0.705688 113.892 0.705688H101.133L96.2339 24.2943ZM104.834 6.61237H110.256L109.472 10.3469H104.051L104.834 6.61237Z" fill="white"/>
<path d="M113.606 24.2943H118.657L120.486 15.4533H122.816L125.385 24.2943H130.437L127.867 15.4533H128.237C129.675 15.4533 130.894 13.929 131.395 11.5664L132.832 4.66888C133.245 2.72539 132.418 0.705688 131.264 0.705688H118.505L113.606 24.2943ZM122.206 6.61237H127.628L126.844 10.3469H121.422L122.206 6.61237Z" fill="white"/>
<path d="M130.978 24.2943H136.029L140.928 0.743795H135.877L130.978 24.2943Z" fill="white"/>
<path d="M158.079 0.705688H145.777C144.34 0.705688 143.12 2.22999 142.619 4.59266L138.526 24.2943H150.828C152.265 24.2943 153.484 22.77 153.985 20.4073L158.079 0.705688ZM144.797 18.3876L147.257 6.61237H151.808L149.347 18.3876H144.797Z" fill="white"/>
<path d="M155.685 24.2943H160.737L162.566 15.4533H164.895L167.465 24.2943H172.516L169.947 15.4533H170.317C171.754 15.4533 172.973 13.929 173.474 11.5664L174.911 4.66888C175.325 2.72539 174.497 0.705688 173.343 0.705688H160.584L155.685 24.2943ZM164.286 6.61237H169.707L168.924 10.3469H163.502L164.286 6.61237Z" fill="white"/>
<path d="M185.403 0.705688L184.249 6.45994H194.286L193.72 9.47044H187.275L185.969 15.5295H192.436L191.848 18.2733H181.81L180.526 24.2943H193.285C194.722 24.2943 196.006 22.77 196.442 20.293C196.442 20.293 197.16 17.0157 197.444 15.5295C197.596 14.7674 197.879 13.0144 196.725 12.4809C196.877 12.4809 198.01 12.2523 198.728 9.47044L199.73 4.70699C200.165 2.72539 199.316 0.705688 198.162 0.705688H185.403Z" fill="white"/>
<path fill-rule="evenodd" clip-rule="evenodd" d="M15.1295 6.65048L10.9272 6.61237L7.24753 24.2943H2.19611L5.87581 6.61237H0.824394L2.0437 0.705696C6.66938 0.705696 11.2951 0.705696 15.9207 0.740484C16.0634 0.741557 16.2061 0.742663 16.3488 0.743803L15.1295 6.65048ZM5.29983 7.31807H0.25L1.76066 0H2.0437C6.81174 0 11.5814 0 16.3506 0.0381143L16.9222 0.0426826L15.412 7.35875L11.209 7.32063L7.52979 25H1.62013L5.29983 7.31807ZM34.1716 0L28.9794 25H23.0504L24.9446 15.778H20.7502L18.8559 25H12.9454L18.1375 0H24.0719L22.2865 8.45989H26.4783L28.2637 0H34.1716ZM26.7592 9.16558H21.7077L23.4932 0.705696H18.42L13.521 24.2943H18.5724L20.4667 15.0723H25.5181L23.6238 24.2943H28.697L33.596 0.705696H28.5446L26.7592 9.16558ZM51.8399 0L50.3293 7.31807H40.2077L39.8803 8.95529H48.3313L46.902 15.2826H38.4931L38.0407 17.6819H48.1602L46.6496 25H30.615L35.8071 0H51.8399ZM37.483 18.3876L38.2015 14.5769H46.6278L47.7383 9.66098H39.312L39.9216 6.61237H50.0462L51.2655 0.705696H36.0895L31.1905 24.2943H46.3665L47.5859 18.3876H37.483ZM59.6922 0H65.5644L64.7326 10.8022C64.9097 10.2051 65.0739 9.65555 65.2021 9.22598C65.3364 8.77651 65.4314 8.45839 65.4611 8.35459L65.4666 8.33528L68.2238 0H72.2815L71.5061 12.2468L76.6123 0H82.6188L72.1884 25H66.4796L67.1059 15.5299L63.7828 25H58.0538L59.6922 0ZM67.716 12.4428L66.9321 24.2943H71.9835L81.8251 0.705696H76.8172L70.9384 14.8055L71.8311 0.705696H68.4563L65.8217 8.67018C65.7876 8.78967 65.6851 9.13288 65.5425 9.61009C65.2915 10.4505 64.9164 11.7065 64.5719 12.8881C64.3634 13.6035 64.1662 14.2916 64.0145 14.8436L65.1032 0.705696H60.0518L58.5059 24.2943H63.5573L67.716 12.4428ZM77.9889 25L82.2799 4.34722C82.8382 1.71322 84.2062 0 85.8368 0H99.2151L94.023 25H88.0895L89.3306 19.0933H85.1384L83.8973 25H77.9889ZM84.857 18.3876H89.9084L88.6674 24.2943H93.7406L98.6396 0.705696H85.8368C84.378 0.705696 83.1587 2.23 82.6579 4.59267L78.5645 24.2943H83.616L84.857 18.3876ZM87.5787 7.31807L86.6507 11.8134H90.8447L91.7727 7.31807H87.5787ZM87.2956 6.61237L86.0763 12.5191H91.1278L92.3471 6.61237H87.2956ZM95.6585 25L100.851 0H113.892C115.323 0 116.35 2.50249 115.838 4.91254C115.838 4.91344 115.838 4.91435 115.838 4.91525L114.402 11.8081L114.401 11.8118C113.876 14.2882 112.635 15.9536 111.148 16.1413L113.319 23.6114L118.223 0H131.264C132.695 0 133.722 2.50249 133.21 4.91254C133.21 4.91344 133.21 4.91435 133.21 4.91525L131.774 11.8081L131.773 11.8118C131.248 14.2882 130.006 15.9536 128.52 16.1413L130.691 23.6117L135.595 0.0381069H141.504L136.312 25H125.138L122.569 16.159H120.769L118.94 25H107.766L105.197 16.159H103.397L101.568 25H95.6585ZM103.114 15.4533H105.444L108.013 24.2943H113.065L110.496 15.4533H110.866C110.893 15.4533 110.92 15.4528 110.948 15.4517C112.349 15.3951 113.532 13.8841 114.023 11.5664L115.46 4.66889C115.874 2.7254 115.046 0.705696 113.892 0.705696H101.133L96.2341 24.2943H101.286L103.114 15.4533ZM120.486 15.4533H122.816L125.385 24.2943H130.437L127.868 15.4533H128.238C128.265 15.4533 128.292 15.4528 128.319 15.4517C129.721 15.3951 130.904 13.8841 131.395 11.5664L132.832 4.66889C133.246 2.7254 132.418 0.705696 131.264 0.705696H118.505L113.606 24.2943H118.657L120.486 15.4533ZM105.116 7.31807L104.628 9.64122H109.191L109.678 7.31807H105.116ZM104.835 6.61237L104.051 10.3469H109.472L110.256 6.61237H104.835ZM122.488 7.31807L122 9.64122H126.563L127.05 7.31807H122.488ZM122.206 6.61237L121.423 10.3469H126.844L127.628 6.61237H122.206ZM136.029 24.2943H130.978L135.877 0.743803H140.928L136.029 24.2943ZM158.654 0L154.364 20.6485L154.363 20.6528C153.806 23.2842 152.439 25 150.828 25H137.951L142.241 4.3515L142.242 4.34722C142.799 1.71575 144.166 0 145.777 0H158.654ZM142.62 4.59267C143.12 2.23 144.34 0.705696 145.777 0.705696H158.079L153.985 20.4073C153.485 22.77 152.265 24.2943 150.828 24.2943H138.526L142.62 4.59267ZM144.797 18.3876H149.348L151.808 6.61237H147.257L144.797 18.3876ZM145.374 17.6819H149.066L151.231 7.31807H147.539L145.374 17.6819ZM155.11 25L160.302 0H173.344C174.774 0 175.802 2.50249 175.29 4.91254C175.29 4.91344 175.289 4.91435 175.289 4.91525L173.853 11.8081L173.852 11.8118C173.327 14.2882 172.086 15.9536 170.599 16.1413L173.174 25H167.218L164.648 16.159H162.849L161.02 25H155.11ZM162.566 15.4533H164.896L167.465 24.2943H172.516L169.947 15.4533H170.317C170.345 15.4533 170.372 15.4528 170.399 15.4517C171.8 15.3951 172.983 13.8841 173.474 11.5664L174.911 4.66889C175.325 2.7254 174.498 0.705696 173.344 0.705696H160.585L155.686 24.2943H160.737L162.566 15.4533ZM164.567 7.31807L164.08 9.64122H168.642L169.13 7.31807H164.567ZM164.286 6.61237L163.502 10.3469H168.924L169.708 6.61237H164.286ZM185.117 0H198.162C199.588 0 200.645 2.49665 200.107 4.95524C200.107 4.95694 200.107 4.95863 200.106 4.96033L199.102 9.738L199.096 9.76114C198.687 11.3443 198.146 12.2053 197.678 12.6681C197.85 13.0218 197.938 13.4223 197.973 13.8089C198.044 14.5952 197.903 15.3687 197.825 15.7578C197.681 16.5151 197.429 17.7144 197.214 18.716C197.107 19.22 197.008 19.6772 196.936 20.0085C196.916 20.0984 196.899 20.1791 196.883 20.2489L196.823 20.5239C196.328 23.3033 194.882 25 193.285 25H179.945L181.531 17.5676H191.569L191.854 16.2352H185.386L186.997 8.76475H193.429L193.729 7.16564H183.68L185.117 0ZM194.287 6.45994L193.72 9.47044H187.276L185.969 15.5296H192.436L191.848 18.2733H181.81L180.526 24.2943H193.285C194.722 24.2943 196.007 22.77 196.442 20.293C196.442 20.293 197.161 17.0158 197.444 15.5296C197.563 14.9335 197.762 13.7316 197.291 12.9808C197.16 12.7715 196.977 12.5972 196.725 12.4809C196.79 12.4809 197.033 12.4394 197.347 12.1758C197.768 11.8215 198.316 11.0658 198.728 9.47044L199.73 4.70699C200.165 2.7254 199.316 0.705696 198.162 0.705696H185.403L184.249 6.45994H194.287Z" fill="black"/>
</svg>
